<?xml version="1.0" encoding="UTF-8" standalone="no"?>
<svg
   xmlns:dc="http://purl.org/dc/elements/1.1/"
   xmlns:cc="http://creativecommons.org/ns#"
   xmlns:rdf="http://www.w3.org/1999/02/22-rdf-syntax-ns#"
   xmlns:svg="http://www.w3.org/2000/svg"
   xmlns="http://www.w3.org/2000/svg"
   xmlns:xlink="http://www.w3.org/1999/xlink"
   xmlns:sodipodi="http://sodipodi.sourceforge.net/DTD/sodipodi-0.dtd"
   xmlns:inkscape="http://www.inkscape.org/namespaces/inkscape"
   width="64"
   height="64"
   version="1"
   id="svg34"
   sodipodi:docname="favicon.svg"
   inkscape:version="0.92.3 (2405546, 2018-03-11)">
  <metadata
     id="metadata40">
    <rdf:RDF>
      <cc:Work
         rdf:about="">
        <dc:format>image/svg+xml</dc:format>
        <dc:type
           rdf:resource="http://purl.org/dc/dcmitype/StillImage" />
        <dc:title></dc:title>
      </cc:Work>
    </rdf:RDF>
  </metadata>
  <defs
     id="defs38">
    <linearGradient
       inkscape:collect="always"
       id="linearGradient4556">
      <stop
         style="stop-color:#04648b;stop-opacity:1"
         offset="0"
         id="stop4552" />
      <stop
         style="stop-color:#0377a8;stop-opacity:1"
         offset="1"
         id="stop4554" />
    </linearGradient>
    <linearGradient
       inkscape:collect="always"
       xlink:href="#linearGradient4556"
       id="linearGradient4558"
       x1="20.067797"
       y1="3.8644068"
       x2="38.847458"
       y2="62.372883"
       gradientUnits="userSpaceOnUse" />
  </defs>
  <sodipodi:namedview
     pagecolor="#ffffff"
     bordercolor="#666666"
     borderopacity="1"
     objecttolerance="10"
     gridtolerance="10"
     guidetolerance="10"
     inkscape:pageopacity="0"
     inkscape:pageshadow="2"
     inkscape:window-width="2560"
     inkscape:window-height="1278"
     id="namedview36"
     showgrid="false"
     inkscape:zoom="14.75"
     inkscape:cx="24.67417"
     inkscape:cy="34.773957"
     inkscape:window-x="0"
     inkscape:window-y="0"
     inkscape:window-maximized="1"
     inkscape:current-layer="svg34" />
  <rect
     style="fill:url(#linearGradient4558);fill-opacity:1;stroke-width:2.02484679"
     id="rect42"
     width="64"
     height="64"
     x="0"
     y="0" />
  <path
     style="opacity:0.2;fill:#ffffff"
     d="m 42,4 -6,6 h -8 v 2 h 8 l 6,-6 6,6 h 8 v -2 h -8 z m -14,14 -6,6 1,1 5,-5 z m 28,0 v 2 l 5,5 1,-1 z"
     id="path2" />
  <path
     d="m 42,4.9999994 -6,5.9999996 h -8 v 8 L 22,25 l 6,6 v 8 h 8 l 6,6 6,-6 h 8 v -8 l 6,-6 -6,-6.000001 v -8 h -8 z"
     style="opacity:0.2;fill:#0d0d08"
     id="path10" />
  <path
     style="fill:#ff8a47"
     d="m 42,4 -6,6 h -8 v 8 l -6,6 6,6 v 8 h 8 l 6,6 6,-6 h 8 v -8 l 6,-6 -6,-6 v -8 h -8 z"
     id="path12" />
  <circle
     cx="42"
     cy="25"
     r="12"
     style="opacity:0.2;fill:#0d0d08"
     id="circle14" />
  <circle
     style="fill:#ffcc42"
     cx="42"
     cy="24"
     r="12"
     id="circle16" />
  <circle
     style="opacity:0.2"
     cx="30.571"
     cy="44.286"
     r="11.429"
     id="circle18" />
  <circle
     style="fill:#ffffff"
     cx="15"
     cy="51"
     r="9"
     id="circle22" />
  <circle
     cx="30"
     cy="42"
     r="12"
     style="fill:#ffffff"
     id="circle24" />
  <circle
     cx="45"
     cy="51"
     r="9"
     style="fill:#ffffff"
     id="circle26" />
  <rect
     style="fill:#ffffff"
     width="30"
     height="12"
     x="15"
     y="48"
     id="rect28" />
  <path
     style="opacity:0.2;fill:#ffffff"
     d="M 42 12 A 12 12 0 0 0 30 24 A 12 12 0 0 0 30.021484 24.404297 A 12 12 0 0 1 42 13 A 12 12 0 0 1 53.974609 24.5 A 12 12 0 0 0 54 24 A 12 12 0 0 0 42 12 z"
     id="path30" />
  <path
     style="opacity:0.2;fill:#ffffff"
     d="M 42 4 L 36 10 L 28 10 L 28 11 L 36 11 L 42 5 L 48 11 L 56 11 L 56 10 L 48 10 L 42 4 z M 28 18 L 22 24 L 22.5 24.5 L 28 19 L 28 18 z M 56 18 L 56 19 L 61.5 24.5 L 62 24 L 56 18 z"
     id="path32" />
</svg>
